<svg width="150" height="44" viewBox="0 0 150 44" fill="none" xmlns="http://www.w3.org/2000/svg">
<path fill-rule="evenodd" clip-rule="evenodd" d="M25 5.20831H16.6667V13.5416H8.33333H0V21.875V30.2083V38.5416H8.33333H16.6667V30.2083H25H33.3333V21.875V13.5416V5.20831H25ZM8.33333 30.2083H16.6667V21.875H25V13.5416H16.6667V21.875H8.33333V30.2083Z" fill="#45536D" fill-opacity="0.4"/>
<path d="M35.4167 6.25H139.583V39.5833H35.4167V6.25Z" fill="#FFFBFB"/>
<path d="M64.4754 18.99C63.9954 18.99 63.6554 18.94 63.4554 18.84C63.2554 18.74 63.1354 18.62 63.0954 18.48C63.0554 18.34 63.0354 18.22 63.0354 18.12C63.0354 18.11 63.0354 18.105 63.0354 18.105C63.0354 17.885 63.1354 17.675 63.3354 17.475C63.5354 17.265 63.8154 17.12 64.1754 17.04C64.4754 16.98 64.8304 16.92 65.2404 16.86C65.6604 16.79 66.1004 16.73 66.5604 16.68C67.0304 16.62 67.4804 16.575 67.9104 16.545C68.3404 16.515 68.7204 16.5 69.0505 16.5C69.4904 16.5 69.8304 16.565 70.0704 16.695C70.3104 16.815 70.4754 16.955 70.5654 17.115C70.6654 17.275 70.7155 17.41 70.7155 17.52C70.7155 17.62 70.6905 17.72 70.6405 17.82C70.5904 17.92 70.4654 18.02 70.2654 18.12C70.0754 18.22 69.7704 18.315 69.3504 18.405C68.9304 18.495 68.3504 18.58 67.6104 18.66C67.5404 18.67 67.4654 18.68 67.3854 18.69C67.3154 19.12 67.2304 19.635 67.1304 20.235C67.0304 20.825 66.9204 21.445 66.8004 22.095C66.6904 22.735 66.5804 23.35 66.4704 23.94C66.3704 24.52 66.2804 25.015 66.2004 25.425C66.6104 25.385 66.9704 25.355 67.2804 25.335C67.6004 25.315 67.8154 25.305 67.9254 25.305C68.2754 25.305 68.5154 25.38 68.6454 25.53C68.7754 25.67 68.8405 25.855 68.8405 26.085C68.8405 26.175 68.6805 26.315 68.3604 26.505C68.0404 26.695 67.5954 26.9 67.0254 27.12C66.4654 27.34 65.8204 27.535 65.0904 27.705C64.6104 27.815 64.1354 27.9 63.6654 27.96C63.1954 28.02 62.8554 28.05 62.6454 28.05C62.2354 28.05 61.9704 27.975 61.8504 27.825C61.7404 27.675 61.6854 27.485 61.6854 27.255C61.6854 27.055 61.7454 26.85 61.8654 26.64C61.9954 26.43 62.1754 26.28 62.4054 26.19C62.6454 26.1 62.9104 26.015 63.2004 25.935C63.4904 25.855 63.7904 25.785 64.1004 25.725C64.1204 25.465 64.1604 25.12 64.2204 24.69C64.2804 24.26 64.3454 23.79 64.4154 23.28C64.4954 22.76 64.5754 22.235 64.6554 21.705C64.7454 21.165 64.8304 20.66 64.9104 20.19C65.0004 19.71 65.0754 19.295 65.1354 18.945C64.8454 18.975 64.6254 18.99 64.4754 18.99ZM73.8868 31.32C73.1368 31.32 72.5668 31.265 72.1768 31.155C71.7968 31.045 71.5368 30.9 71.3968 30.72C71.2568 30.55 71.1868 30.375 71.1868 30.195C71.1868 29.945 71.2668 29.74 71.4268 29.58C71.5968 29.42 71.8168 29.34 72.0868 29.34C72.2668 29.34 72.5268 29.365 72.8668 29.415C73.2068 29.465 73.5468 29.49 73.8868 29.49C74.8868 29.49 75.7118 29.25 76.3618 28.77C77.0118 28.3 77.5218 27.585 77.8918 26.625C78.2618 25.655 78.5168 24.435 78.6568 22.965C77.9668 24.095 77.2018 25 76.3618 25.68C75.5318 26.36 74.6668 26.7 73.7668 26.7C72.7068 26.7 72.1768 26.18 72.1768 25.14C72.1768 24.64 72.3118 24.115 72.5818 23.565C72.8518 23.015 73.2118 22.47 73.6618 21.93C74.1118 21.39 74.6068 20.88 75.1468 20.4C75.6868 19.91 76.2268 19.48 76.7668 19.11C77.3168 18.74 77.8268 18.45 78.2968 18.24C78.7668 18.02 79.1468 17.91 79.4368 17.91C79.6668 17.91 79.8668 17.95 80.0368 18.03C80.2168 18.11 80.3568 18.27 80.4568 18.51C80.5568 18.74 80.6068 19.08 80.6068 19.53C80.6068 20.78 80.5618 21.99 80.4718 23.16C80.3818 24.32 80.2068 25.395 79.9468 26.385C79.6868 27.375 79.3068 28.24 78.8068 28.98C78.3168 29.72 77.6718 30.295 76.8718 30.705C76.0718 31.115 75.0768 31.32 73.8868 31.32ZM74.0968 24.84C74.0968 24.91 74.1268 24.945 74.1868 24.945C74.3868 24.945 74.6568 24.84 74.9968 24.63C75.3368 24.41 75.7018 24.12 76.0918 23.76C76.4918 23.39 76.8818 22.98 77.2618 22.53C77.6418 22.07 77.9768 21.595 78.2668 21.105C78.5668 20.615 78.7818 20.14 78.9118 19.68C78.3918 19.98 77.8518 20.33 77.2918 20.73C76.7418 21.12 76.2218 21.54 75.7318 21.99C75.2518 22.44 74.8568 22.91 74.5468 23.4C74.2468 23.88 74.0968 24.36 74.0968 24.84ZM86.9616 27.495C86.2516 27.495 85.6816 27.245 85.2516 26.745C84.8216 26.235 84.6066 25.555 84.6066 24.705C84.6066 24.435 84.6416 24.16 84.7116 23.88C84.7916 23.6 84.8866 23.34 84.9966 23.1C84.9366 23.01 84.8866 22.895 84.8466 22.755C84.8166 22.605 84.8016 22.43 84.8016 22.23C84.8016 21.58 84.9166 20.985 85.1466 20.445C85.3766 19.895 85.6866 19.42 86.0766 19.02C86.4666 18.62 86.8966 18.31 87.3666 18.09C87.8366 17.87 88.3116 17.76 88.7916 17.76C89.6116 17.76 90.2816 18.035 90.8016 18.585C91.3316 19.135 91.5966 19.99 91.5966 21.15C91.5966 21.73 91.5066 22.32 91.3266 22.92C91.1466 23.52 90.9016 24.095 90.5916 24.645C90.2916 25.185 89.9416 25.67 89.5416 26.1C89.1516 26.53 88.7316 26.87 88.2816 27.12C87.8416 27.37 87.4016 27.495 86.9616 27.495ZM86.7216 22.425C86.7716 22.535 86.7966 22.665 86.7966 22.815C86.7966 22.965 86.7666 23.12 86.7066 23.28C86.6466 23.44 86.5866 23.655 86.5266 23.925C86.4666 24.185 86.4366 24.56 86.4366 25.05C86.4366 25.18 86.4516 25.29 86.4816 25.38C86.5216 25.46 86.6066 25.5 86.7366 25.5C87.0766 25.5 87.3966 25.39 87.6966 25.17C88.0066 24.95 88.2816 24.66 88.5216 24.3C88.7716 23.94 88.9816 23.54 89.1516 23.1C89.3316 22.65 89.4666 22.195 89.5566 21.735C89.6566 21.265 89.7066 20.83 89.7066 20.43C89.7066 20.17 89.6566 19.99 89.5566 19.89C89.4566 19.79 89.2816 19.74 89.0316 19.74C88.6916 19.74 88.3416 19.85 87.9816 20.07C87.6316 20.28 87.3366 20.57 87.0966 20.94C86.8566 21.3 86.7366 21.71 86.7366 22.17C86.7366 22.26 86.7316 22.345 86.7216 22.425ZM95.4224 27.66C95.1724 27.66 94.9574 27.57 94.7774 27.39C94.6074 27.21 94.5224 26.95 94.5224 26.61C94.5224 26.46 94.5424 26.215 94.5824 25.875C94.6324 25.525 94.6924 25.125 94.7624 24.675C94.8424 24.225 94.9174 23.755 94.9874 23.265C95.0674 22.775 95.1324 22.31 95.1824 21.87C95.2424 21.43 95.2824 21.055 95.3024 20.745C95.3224 20.365 95.4224 20.095 95.6024 19.935C95.7824 19.765 95.9974 19.68 96.2474 19.68C96.4474 19.68 96.6274 19.73 96.7874 19.83C96.9574 19.92 97.0624 20.115 97.1024 20.415C97.1524 20.705 97.1574 21.125 97.1174 21.675C97.5574 20.875 98.0024 20.16 98.4524 19.53C98.9124 18.9 99.3924 18.4 99.8924 18.03C100.722 17.4 101.472 17.085 102.142 17.085C102.522 17.085 102.772 17.17 102.892 17.34C103.012 17.51 103.072 17.685 103.072 17.865C103.072 17.985 103.042 18.095 102.982 18.195C102.932 18.295 102.822 18.4 102.652 18.51C102.482 18.62 102.222 18.765 101.872 18.945C101.402 19.185 100.937 19.5 100.477 19.89C100.027 20.28 99.5774 20.78 99.1274 21.39C98.6774 22 98.2224 22.75 97.7624 23.64C97.3024 24.53 96.8274 25.59 96.3374 26.82C96.2474 27.16 96.1174 27.385 95.9474 27.495C95.7874 27.605 95.6124 27.66 95.4224 27.66Z" fill="#45536D"/>
</svg>
